<svg width="160" height="160" viewBox="0 0 160 160" fill="none" xmlns="http://www.w3.org/2000/svg">
  <rect width="160" height="160" rx="36" fill="#18212B"/>
  <path d="M34 92C34 66.5949 54.5949 46 80 46H88C111.196 46 130 64.804 130 88V90C130 111.539 112.539 129 91 129H74C51.9086 129 34 111.091 34 89V92Z" fill="#F7D5C8"/>
  <path d="M53 93C53 78.0883 65.0883 66 80 66H86C99.2548 66 110 76.7452 110 90C110 103.255 99.2548 114 86 114H80C65.0883 114 53 101.912 53 87V93Z" fill="#D65D39"/>
  <circle cx="63" cy="108" r="10" fill="#18212B"/>
  <circle cx="98" cy="108" r="10" fill="#18212B"/>
  <path d="M67 67L92 67C98.6274 67 104 72.3726 104 79V81H67V67Z" fill="#18212B"/>
</svg>
